<?xml version="1.0" encoding="UTF-8"?>
<svg xmlns="http://www.w3.org/2000/svg" xmlns:xlink="http://www.w3.org/1999/xlink" width="810.31pt" height="144pt" viewBox="0 0 810.31 144" version="1.1">
<defs>
<clipPath id="clip1">
  <path d="M 702 41 L 810.308594 41 L 810.308594 124 L 702 124 Z M 702 41 "/>
</clipPath>
</defs>
<g id="surface1">
<path style=" stroke:none;fill-rule:nonzero;fill:rgb(13.699341%,12.199402%,12.5%);fill-opacity:1;" d="M 652.773438 52.660156 L 678.15625 52.660156 L 678.15625 92.257813 L 689.957031 92.257813 L 689.957031 40.855469 L 670.070313 40.855469 C 670.535156 39.382813 671.878906 35.105469 672.574219 31.613281 L 694.589844 31.613281 L 694.589844 19.8125 L 636.261719 19.8125 L 636.261719 31.613281 L 660.070313 31.613281 C 659.527344 33.847656 658.351563 38.417969 657.234375 40.855469 L 640.972656 40.855469 L 640.972656 92.257813 L 652.773438 92.257813 L 652.773438 52.660156 "/>
<path style=" stroke:none;fill-rule:nonzero;fill:rgb(13.699341%,12.199402%,12.5%);fill-opacity:1;" d="M 730.378906 46.308594 L 742.304688 46.308594 L 742.304688 36.695313 L 770.542969 36.695313 L 770.542969 46.308594 L 782.476563 46.308594 L 782.476563 36.695313 L 807.910156 36.695313 L 807.910156 24.761719 L 782.476563 24.761719 L 782.476563 15.105469 L 770.542969 15.105469 L 770.542969 24.761719 L 742.304688 24.761719 L 742.304688 15.148438 L 730.378906 15.148438 L 730.378906 24.761719 L 704.78125 24.761719 L 704.78125 36.695313 L 730.378906 36.695313 L 730.378906 46.308594 "/>
<g clip-path="url(#clip1)" clip-rule="nonzero">
<path style=" stroke:none;fill-rule:nonzero;fill:rgb(13.699341%,12.199402%,12.5%);fill-opacity:1;" d="M 782.449219 77 L 763.207031 77 C 762.902344 75.550781 762.675781 74.121094 762.546875 72.738281 L 762.546875 63.464844 L 782.449219 63.464844 Z M 730.238281 77 L 730.238281 63.464844 L 749.902344 63.464844 L 749.902344 69.476563 C 749.902344 71.839844 749.625 74.382813 749.082031 77 Z M 810.304688 77 L 795.003906 77 L 795.003906 51.535156 L 762.546875 51.535156 L 762.546875 41.839844 L 750.148438 41.839844 L 750.148438 51.535156 L 717.691406 51.535156 L 717.691406 77 L 702.019531 77 L 702.019531 88.859375 L 744.769531 88.886719 C 738.496094 100.730469 726.328125 111.15625 707.417969 111.15625 L 704.355469 111.085938 L 704.355469 123.507813 C 704.355469 123.507813 707.386719 123.488281 707.417969 123.519531 C 728.09375 123.519531 746.851563 110.324219 756.144531 92.933594 C 765.4375 110.324219 784.191406 123.519531 804.871094 123.519531 C 804.902344 123.488281 807.933594 123.507813 807.933594 123.507813 L 807.738281 111.15625 L 804.871094 111.15625 C 785.964844 111.15625 773.800781 100.742188 767.527344 88.902344 L 810.304688 88.929688 L 810.304688 77 "/>
</g>
<path style=" stroke:none;fill-rule:nonzero;fill:rgb(13.699341%,12.199402%,12.5%);fill-opacity:1;" d="M 601.359375 51.46875 C 601.359375 51.46875 610.609375 60.617188 614.046875 66.667969 L 623.09375 59.070313 C 623.09375 59.070313 613.996094 41.195313 601.359375 51.46875 "/>
<path style=" stroke:none;fill-rule:nonzero;fill:rgb(13.699341%,12.199402%,12.5%);fill-opacity:1;" d="M 589.480469 68.90625 L 629.109375 68.90625 L 634.6875 74.226563 C 634.6875 74.226563 630.984375 91.265625 618.546875 108.480469 C 618.546875 108.480469 623.308594 116.933594 623.269531 117.421875 L 613.570313 123.507813 C 613.570313 123.507813 603.894531 102.742188 596.84375 94.285156 L 606.511719 89.183594 C 606.511719 89.183594 609.449219 93.304688 612.082031 97.457031 C 612.082031 97.457031 618.347656 84.316406 619.132813 80.582031 L 589.480469 80.582031 L 589.480469 68.90625 "/>
<path style=" stroke:none;fill-rule:nonzero;fill:rgb(13.699341%,12.199402%,12.5%);fill-opacity:1;" d="M 611.796875 15.203125 C 611.796875 15.203125 599.996094 33.398438 585.382813 46.476563 L 589.113281 58.28125 C 589.113281 58.28125 602.695313 45.132813 611.796875 34.335938 C 620.902344 45.132813 634.484375 58.28125 634.484375 58.28125 L 638.21875 46.476563 C 623.605469 33.398438 611.796875 15.203125 611.796875 15.203125 "/>
<path style=" stroke:none;fill-rule:nonzero;fill:rgb(13.699341%,12.199402%,12.5%);fill-opacity:1;" d="M 670.789063 92.375 C 671.050781 90.964844 671.101563 87.382813 671.101563 87.105469 L 671.113281 59.246094 L 659.320313 59.246094 L 659.320313 87.105469 C 657.902344 110.113281 635.292969 111.085938 635.292969 111.085938 L 635.292969 123.507813 C 635.292969 123.507813 655.417969 121.886719 665.261719 106.285156 C 665.179688 106.390625 667.074219 103.296875 667.074219 103.199219 C 675.460938 112.542969 682.292969 117.421875 695.75 123.507813 L 695.75 110.796875 C 695.75 110.796875 683.964844 106.6875 670.789063 92.375 "/>
<path style=" stroke:none;fill-rule:nonzero;fill:rgb(13.699341%,12.199402%,12.5%);fill-opacity:1;" d="M 0 21.449219 L 22.097656 21.449219 L 22.097656 101.917969 L 63.003906 101.917969 L 63.003906 122.3125 L 0 122.3125 L 0 21.449219 "/>
<path style=" stroke:none;fill-rule:nonzero;fill:rgb(13.699341%,12.199402%,12.5%);fill-opacity:1;" d="M 83.378906 19.953125 C 90.179688 19.953125 95.699219 25.472656 95.699219 32.265625 C 95.699219 39.070313 90.179688 44.578125 83.378906 44.578125 C 76.585938 44.578125 71.070313 39.070313 71.070313 32.265625 C 71.070313 25.472656 76.585938 19.953125 83.378906 19.953125 M 72.761719 53.929688 L 94 53.929688 L 94 122.285156 L 72.761719 122.285156 L 72.761719 53.929688 "/>
<path style=" stroke:none;fill-rule:nonzero;fill:rgb(13.699341%,12.199402%,12.5%);fill-opacity:1;" d="M 182.769531 21.441406 L 203.992188 21.441406 L 203.992188 81.722656 L 228.039063 53.898438 L 254.066406 53.898438 L 226.21875 85.550781 L 253.484375 122.3125 L 226.800781 122.3125 L 204.269531 88.519531 L 203.992188 88.519531 L 203.992188 122.3125 L 182.769531 122.3125 L 182.769531 21.441406 "/>
<path style=" stroke:none;fill-rule:nonzero;fill:rgb(13.699341%,12.199402%,12.5%);fill-opacity:1;" d="M 105.742188 53.9375 L 126.125 53.9375 L 126.125 63.28125 L 126.410156 63.28125 C 129.242188 57.902344 136.179688 52.242188 146.507813 52.242188 C 168.03125 52.242188 171.992188 66.398438 171.992188 84.796875 L 171.992188 122.285156 L 150.757813 122.285156 L 150.757813 89.042969 C 150.757813 81.117188 150.617188 70.929688 139.710938 70.929688 C 128.671875 70.929688 126.980469 79.566406 126.980469 88.480469 L 126.980469 122.285156 L 105.742188 122.285156 L 105.742188 53.9375 "/>
<path style=" stroke:none;fill-rule:nonzero;fill:rgb(13.699341%,12.199402%,12.5%);fill-opacity:1;" d="M 316.738281 110.449219 C 309.941406 119.085938 298.769531 124.046875 287.71875 124.046875 C 266.488281 124.046875 249.5 109.878906 249.5 87.933594 C 249.5 65.996094 266.488281 51.84375 287.71875 51.84375 C 307.554688 51.84375 320 65.996094 320 87.933594 L 320 94.59375 L 270.734375 94.59375 C 272.421875 102.664063 278.515625 107.894531 286.730469 107.894531 C 293.671875 107.894531 298.335938 104.363281 301.878906 99.546875 Z M 298.769531 80.160156 C 298.90625 73.074219 293.382813 67.132813 285.734375 67.132813 C 276.398438 67.132813 271.296875 73.5 270.734375 80.160156 L 298.769531 80.160156 "/>
<path style=" stroke:none;fill-rule:nonzero;fill:rgb(13.699341%,12.199402%,12.5%);fill-opacity:1;" d="M 400.765625 122.277344 L 381.222656 122.277344 L 381.222656 113.210938 L 380.945313 113.210938 C 377.683594 118.160156 369.480469 123.972656 359.847656 123.972656 C 339.460938 123.972656 326.011719 109.25 326.011719 88.441406 C 326.011719 69.324219 337.898438 51.769531 357.4375 51.769531 C 366.222656 51.769531 374.425781 54.171875 379.246094 60.832031 L 379.523438 60.832031 L 379.523438 21.441406 L 400.765625 21.441406 Z M 364.226563 70.457031 C 353.617188 70.457031 347.25 77.539063 347.25 87.867188 C 347.25 98.210938 353.617188 105.277344 364.226563 105.277344 C 374.847656 105.277344 381.222656 98.210938 381.222656 87.867188 C 381.222656 77.539063 374.847656 70.457031 364.226563 70.457031 "/>
<path style=" stroke:none;fill-rule:nonzero;fill:rgb(0%,41.175842%,59.606934%);fill-opacity:1;" d="M 555.46875 0 L 432.75 0 C 426.886719 0 422.121094 4.648438 422.121094 10.378906 L 422.121094 133.609375 C 422.121094 139.34375 426.886719 144 432.75 144 L 555.46875 144 C 561.339844 144 566.128906 139.34375 566.128906 133.609375 L 566.128906 10.378906 C 566.128906 4.648438 561.339844 0 555.46875 0 "/>
<path style=" stroke:none;fill-rule:nonzero;fill:rgb(100%,100%,100%);fill-opacity:1;" d="M 454.15625 19.824219 C 460.984375 19.824219 466.535156 25.375 466.535156 32.203125 C 466.535156 39.042969 460.984375 44.589844 454.15625 44.589844 C 447.3125 44.589844 441.769531 39.042969 441.769531 32.203125 C 441.769531 25.375 447.3125 19.824219 454.15625 19.824219 M 443.472656 53.984375 L 464.832031 53.984375 L 464.832031 122.707031 L 443.472656 122.707031 L 443.472656 53.984375 "/>
<path style=" stroke:none;fill-rule:nonzero;fill:rgb(100%,100%,100%);fill-opacity:1;" d="M 478.230469 53.984375 L 498.714844 53.984375 L 498.714844 63.375 L 499 63.375 C 501.851563 57.972656 508.820313 52.277344 519.210938 52.277344 C 540.835938 52.277344 544.832031 66.511719 544.832031 85.011719 L 544.832031 122.707031 L 523.488281 122.707031 L 523.488281 89.285156 C 523.488281 81.320313 523.339844 71.066406 512.386719 71.066406 C 501.273438 71.066406 499.570313 79.746094 499.570313 88.710938 L 499.570313 122.707031 L 478.230469 122.707031 L 478.230469 53.984375 "/>
<path style=" stroke:none;fill-rule:nonzero;fill:rgb(13.699341%,12.199402%,12.5%);fill-opacity:1;" d="M 569.636719 119.09375 L 570.796875 119.09375 L 570.796875 122.707031 L 571.429688 122.707031 L 571.429688 119.09375 L 572.585938 119.09375 L 572.585938 118.460938 L 569.636719 118.460938 L 569.636719 119.09375 "/>
<path style=" stroke:none;fill-rule:nonzero;fill:rgb(13.699341%,12.199402%,12.5%);fill-opacity:1;" d="M 576.6875 118.460938 L 575.449219 121.578125 L 574.210938 118.460938 L 573.3125 118.460938 L 573.3125 122.707031 L 573.941406 122.707031 L 573.941406 119.476563 L 575.242188 122.707031 L 575.660156 122.707031 L 576.957031 119.476563 L 576.957031 122.707031 L 577.585938 122.707031 L 577.585938 118.460938 L 576.6875 118.460938 "/>
</g>
</svg>
